<svg width="180" height="40" viewBox="0 0 180 40" fill="none" xmlns="http://www.w3.org/2000/svg">
  <g transform="translate(2 4) scale(0.0653)">
    <path d="M227.28 0H400.66C448.955 0 490 40.2944 490 90C490 139.706 448.955 180 400.66 180H227.28C312.961 171.532 312.961 8.46779 227.28 0Z" fill="#FFFFFF" />
    <path d="M262.72 180H69.3397C31.0445 180 9.15527e-05 209.101 9.15527e-05 245C9.15527e-05 280.899 31.0445 310 69.3397 310H262.72C177.039 303.884 177.039 186.116 262.72 180Z" fill="#FFFFFF" />
    <path d="M227.28 310H400.66C448.955 310 490 350.294 490 400C490 449.706 448.955 490 400.66 490H227.28C312.961 481.532 312.961 318.468 227.28 310Z" fill="#FFFFFF" />
  </g>
  <text x="44" y="24" fill="#FFFFFF" font-family="Inter, Arial, sans-serif" font-size="15" font-weight="400" letter-spacing="1.6">BURKI</text>
  <text x="96" y="24" fill="#FFFFFF" font-family="Inter, Arial, sans-serif" font-size="15" font-weight="700" letter-spacing="1.2">.DEV</text>
</svg>
