<svg width="120" height="40" viewBox="0 0 120 40" fill="none" xmlns="http://www.w3.org/2000/svg">
  <!-- Voice wave elements -->
  <g opacity="0.8">
    <!-- Main sound wave -->
    <path d="M4 20 Q8 12 12 20 Q16 28 20 20 Q24 12 28 20" stroke="#10B981" stroke-width="2" fill="none" stroke-linecap="round"/>
    <!-- Secondary waves -->
    <path d="M2 20 Q6 16 10 20 Q14 24 18 20 Q22 16 26 20 Q30 24 34 20" stroke="#10B981" stroke-width="1.5" fill="none" opacity="0.6" stroke-linecap="round"/>
    <path d="M6 20 Q10 14 14 20 Q18 26 22 20 Q26 14 30 20" stroke="#10B981" stroke-width="1" fill="none" opacity="0.4" stroke-linecap="round"/>
  </g>
  
  <!-- AI Circuit pattern -->
  <g opacity="0.5">
    <circle cx="35" cy="16" r="1" fill="#10B981"/>
    <circle cx="39" cy="20" r="1" fill="#10B981"/>
    <circle cx="35" cy="24" r="1" fill="#10B981"/>
    <line x1="35" y1="16" x2="39" y2="20" stroke="#10B981" stroke-width="0.5"/>
    <line x1="39" y1="20" x2="35" y2="24" stroke="#10B981" stroke-width="0.5"/>
  </g>
  
  <!-- Text -->
  <text x="48" y="17" font-family="Satoshi, -apple-system, BlinkMacSystemFont, sans-serif" font-size="18" font-weight="700" fill="#E6EDF3">
    Burki
  </text>
  <text x="48" y="30" font-family="Inter, -apple-system, BlinkMacSystemFont, sans-serif" font-size="9" font-weight="500" fill="#8B949E" letter-spacing="0.5px">
    VOICE AI
  </text>
  
  <!-- Accent dot -->
  <circle cx="92" cy="13" r="2" fill="#10B981"/>
</svg>
