<svg width="800" height="400" viewBox="0 0 800 400" fill="none" xmlns="http://www.w3.org/2000/svg" role="img" aria-labelledby="title desc">
  <title id="title">Burki documentation hero illustration</title>
  <desc id="desc">Neo-brutalist diagram of Burki's voice AI documentation, showing API, realtime voice, providers, and call data modules.</desc>
  <rect width="800" height="400" fill="#F7F7F2"/>
  <path d="M0 48H800M0 96H800M0 144H800M0 192H800M0 240H800M0 288H800M0 336H800M80 0V400M160 0V400M240 0V400M320 0V400M400 0V400M480 0V400M560 0V400M640 0V400M720 0V400" stroke="#111111" stroke-opacity="0.08" stroke-width="2"/>
  <rect x="34" y="30" width="732" height="340" fill="#FFFFFF" stroke="#111111" stroke-width="4"/>
  <rect x="50" y="46" width="700" height="52" fill="#050505" stroke="#111111" stroke-width="3"/>
  <g transform="translate(68 59) scale(0.052)">
    <path d="M227.28 0H400.66C448.955 0 490 40.2944 490 90C490 139.706 448.955 180 400.66 180H227.28C312.961 171.532 312.961 8.46779 227.28 0Z" fill="#66D38F"/>
    <path d="M262.72 180H69.3397C31.0445 180 0 209.101 0 245C0 280.899 31.0445 310 69.3397 310H262.72C177.039 303.884 177.039 186.116 262.72 180Z" fill="#66D38F"/>
    <path d="M227.28 310H400.66C448.955 310 490 350.294 490 400C490 449.706 448.955 490 400.66 490H227.28C312.961 481.532 312.961 318.468 227.28 310Z" fill="#66D38F"/>
  </g>
  <text x="114" y="79" fill="#FFFFFF" font-family="Inter, Arial, sans-serif" font-size="18" font-weight="800" letter-spacing="2">BURKI DOCS</text>
  <rect x="587" y="58" width="142" height="24" fill="#FFD880" stroke="#111111" stroke-width="2"/>
  <text x="605" y="75" fill="#050505" font-family="Inter, Arial, sans-serif" font-size="12" font-weight="800" letter-spacing="1">PRODUCTION API</text>
  <rect x="70" y="126" width="300" height="176" fill="#66D38F" stroke="#111111" stroke-width="4"/>
  <text x="92" y="161" fill="#050505" font-family="Inter, Arial, sans-serif" font-size="27" font-weight="900">Voice AI Docs</text>
  <text x="92" y="188" fill="#050505" font-family="Inter, Arial, sans-serif" font-size="14" font-weight="700">Quickstart, API reference, providers,</text>
  <text x="92" y="208" fill="#050505" font-family="Inter, Arial, sans-serif" font-size="14" font-weight="700">webhooks, billing, SIP, and learning.</text>
  <rect x="92" y="236" width="114" height="34" fill="#050505"/>
  <text x="112" y="258" fill="#FFFFFF" font-family="Inter, Arial, sans-serif" font-size="12" font-weight="800">/api/v1</text>
  <rect x="218" y="236" width="112" height="34" fill="#FFD880" stroke="#111111" stroke-width="3"/>
  <text x="241" y="258" fill="#050505" font-family="Inter, Arial, sans-serif" font-size="12" font-weight="900">wss://</text>
  <rect x="400" y="126" width="144" height="74" fill="#FFFFFF" stroke="#111111" stroke-width="4"/>
  <text x="420" y="156" fill="#050505" font-family="Inter, Arial, sans-serif" font-size="14" font-weight="900">CALLS</text>
  <path d="M420 176H524" stroke="#66D38F" stroke-width="7"/>
  <rect x="572" y="126" width="144" height="74" fill="#050505" stroke="#111111" stroke-width="4"/>
  <text x="592" y="156" fill="#FFFFFF" font-family="Inter, Arial, sans-serif" font-size="14" font-weight="900">STREAMING</text>
  <path d="M592 178C604 150 616 206 628 178C640 150 652 206 664 178C676 150 688 206 700 178" stroke="#FFD880" stroke-width="5" stroke-linecap="square"/>
  <rect x="400" y="228" width="144" height="74" fill="#FFD880" stroke="#111111" stroke-width="4"/>
  <text x="420" y="258" fill="#050505" font-family="Inter, Arial, sans-serif" font-size="14" font-weight="900">PROVIDERS</text>
  <circle cx="422" cy="278" r="5" fill="#050505"/>
  <circle cx="442" cy="278" r="5" fill="#050505"/>
  <circle cx="462" cy="278" r="5" fill="#050505"/>
  <circle cx="482" cy="278" r="5" fill="#050505"/>
  <rect x="572" y="228" width="144" height="74" fill="#FFFFFF" stroke="#111111" stroke-width="4"/>
  <text x="592" y="258" fill="#050505" font-family="Inter, Arial, sans-serif" font-size="14" font-weight="900">WEBHOOKS</text>
  <path d="M596 278H692M596 286H666" stroke="#050505" stroke-width="4"/>
  <path d="M370 214H400M544 164H572M544 266H572" stroke="#111111" stroke-width="4"/>
  <path d="M386 214L376 204V224L386 214ZM560 164L550 154V174L560 164ZM560 266L550 256V276L560 266Z" fill="#111111"/>
</svg>
